<svg xmlns:xlink="http://www.w3.org/1999/xlink" xmlns="http://www.w3.org/2000/svg" id="Calque_1" data-name="Calque 1" viewBox="0 0 199.65 200.76" width="199.65" height="200.76"><path d="M150.7 49.66c.17 3.71.31 7.42.51 11.14.83 16 2.22 31.86 7.09 47.22 6.3 19.89 20 32 39.81 37.63 15.11 4.31 30.67 5.35 46.26 6.08a30.32 30.32 0 0 1 5.35.59c-7.33.49-14.66.94-22 1.49-12.35.93-24.5 3-36.16 7.32-18.38 6.77-29.19 20.31-34.4 38.84-4.16 14.78-5.25 29.95-6 45.18-.08 1.57-.16 3.13-.26 4.7 0 .08-.17.15-.66.56-.24-4.58-.45-8.85-.69-13.13-.8-14-2.48-27.92-6.92-41.38-5.78-17.53-17.25-29.29-34.66-35.38-15.73-5.49-32.09-6.81-48.54-7.66a89.9 89.9 0 0 1-9.36-.77c6.59-.36 13.21-.51 19.78-1.13 14.09-1.33 28.15-2.81 41.45-8.3 15.66-6.47 25.85-17.85 31.21-33.75s6.67-32.61 7.44-49.3c.15-3.31.28-6.62.42-9.94Z" transform="translate(-50.08 -49.66)"></path></svg>